<?xml version="1.0" standalone="no"?><!DOCTYPE svg PUBLIC "-//W3C//DTD SVG 1.1//EN" "http://www.w3.org/Graphics/SVG/1.1/DTD/svg11.dtd"><svg t="1686799915274" class="icon" viewBox="0 0 1024 1024" version="1.1" xmlns="http://www.w3.org/2000/svg" p-id="3828" xmlns:xlink="http://www.w3.org/1999/xlink" width="200" height="200"><path d="M349.376 128a64 64 0 0 1 34.368 9.984L544 240H896a64 64 0 0 1 64 64V832a64 64 0 0 1-64 64H128a64 64 0 0 1-64-64V192a64 64 0 0 1 64-64h221.376z m0 64H128v640h768V304H525.376L349.376 192zM512 704a32 32 0 1 1 0 64H288a32 32 0 1 1 0-64H512z" fill="#ffffff" p-id="3829"></path></svg>