<?xml version="1.0" standalone="no"?><!DOCTYPE svg PUBLIC "-//W3C//DTD SVG 1.1//EN" "http://www.w3.org/Graphics/SVG/1.1/DTD/svg11.dtd"><svg t="1686800023912" class="icon" viewBox="0 0 1024 1024" version="1.1" xmlns="http://www.w3.org/2000/svg" p-id="4149" xmlns:xlink="http://www.w3.org/1999/xlink" width="200" height="200"><path d="M917.3 106.7H106.7c-23.6 0-42.7 19.1-42.7 42.7v725.3c0 23.6 19.1 42.7 42.7 42.7h810.7c23.6 0 42.7-19.1 42.7-42.7V149.3c-0.1-23.5-19.2-42.6-42.8-42.6z m0 746.6c0 11.8-9.6 21.3-21.3 21.3H128c-11.8 0-21.3-9.6-21.3-21.3V170.7c0-11.8 9.6-21.3 21.3-21.3h768c11.8 0 21.3 9.6 21.3 21.3v682.6z" fill="#ffffff" p-id="4150"></path><path d="M704 256c-58.9 0-106.7 47.8-106.7 106.7S645.1 469.3 704 469.3s106.7-47.8 106.7-106.7S762.9 256 704 256z m0 170.7c-35.3 0-64-28.7-64-64s28.7-64 64-64 64 28.7 64 64-28.7 64-64 64zM605 555.3c-20.3-7.9-41.2-11.6-61.6-11.6-38.5 0-75.7 13.2-105.5 36.6-7-53.5-42.7-101.4-96.9-121.1-16.9-6.1-34.1-9-51.1-9-32.4 0-63.5 10.8-89 29.9-12.3 9.2-11.6 27.9 1.7 35.6l0.2 0.1c7.1 4.1 16.1 3.9 22.6-1 18.2-13.8 40.7-21.9 64.5-21.9 30.2 0 59.6 12.9 83.4 37.9 14 14.7 19.8 34.6 22.3 54.8 1.9 15.4 11.9 28.5 26.2 34.4 5.2 2.1 10.7 3.2 16.1 3.2 9.4 0 18.7-3.1 26.3-9.1 22.6-17.7 50.8-27.5 79.2-27.5 21.2 0 42.1 5.3 61.5 15.8 22.4 12.1 39.5 32.4 50.4 55.5 19.1 40.5 18.2 74.3 7.4 102.3-3.8 9.9-0.2 21.1 9 26.4h0.1c11.1 6.4 25.7 1.8 30.3-10.1 6.7-17.1 10.8-35.9 11.1-56.9 1-71.3-41.9-138.6-108.2-164.3z" fill="#ffffff" p-id="4151"></path></svg>