<?xml version="1.0" standalone="no"?><!DOCTYPE svg PUBLIC "-//W3C//DTD SVG 1.1//EN" "http://www.w3.org/Graphics/SVG/1.1/DTD/svg11.dtd"><svg t="1686800361682" class="icon" viewBox="0 0 1024 1024" version="1.1" xmlns="http://www.w3.org/2000/svg" p-id="6185" xmlns:xlink="http://www.w3.org/1999/xlink" width="200" height="200"><path d="M504.32 85.333333c-235.52 0-426.666667 191.146667-426.666667 426.666667s191.146667 426.666667 426.666667 426.666667 426.666667-191.146667 426.666667-426.666667-190.293333-426.666667-426.666667-426.666667z m29.866667 649.386667H404.48c-17.92 0-31.573333-14.506667-31.573333-31.573333 0-17.92 14.506667-31.573333 31.573333-31.573334h129.706667c68.266667 0 122.88-55.466667 122.88-122.88 0-68.266667-55.466667-122.88-122.88-122.88H477.866667v37.546667c0 26.453333-28.16 42.666667-51.2 29.866667l-122.026667-69.12c-23.04-12.8-23.04-46.08 0-59.733334L426.666667 295.253333c23.04-12.8 51.2 3.413333 51.2 29.866667v37.546667h56.32c103.253333 0 186.88 83.626667 186.88 186.88 0 101.546667-83.626667 185.173333-186.88 185.173333z" fill="#ffffff" p-id="6186"></path></svg>